<svg xmlns="http://www.w3.org/2000/svg" viewBox="0 0 256 256">
  <rect width="256" height="256" rx="58" fill="#0f8b8d"/>
  <path fill="#fff" d="M128 56c-29.8 0-54 24.2-54 54 0 47.8 54 90 54 90s54-42.2 54-90c0-29.8-24.2-54-54-54Zm0 26c15.5 0 28 12.5 28 28 0 5.5-1.6 10.6-4.3 14.9h-16.2l-7.1-22.4c-1.5-4.7-8.2-4.7-9.7 0l-9.6 30.2-5.2-10.1a5.1 5.1 0 0 0-4.6-2.8H86.7A28 28 0 0 1 128 82Zm0 76.8c-6.4-6-17.3-17.2-25.9-30.2h11.6l9.3 18.1c2.1 4 8 3.5 9.4-.8l9.8-30.7 3.8 12.1a5.2 5.2 0 0 0 4.9 3.6h8.9c-8.8 12.1-20 22.4-31.8 27.9Z"/>
</svg>
